<svg width="143" height="53" viewBox="0 0 143 53" fill="none" xmlns="http://www.w3.org/2000/svg">
<path d="M15.4251 0C18.1399 0 20.5805 0.411336 22.7468 1.23401C24.9132 2.05668 26.6271 3.27697 27.8885 4.89489C29.1774 6.48539 29.8218 8.43237 29.8218 10.7358H21.1426C21.1426 9.55669 20.6216 8.61062 19.5796 7.89764C18.5375 7.15723 17.2761 6.78703 15.7953 6.78703C13.6563 6.78703 12.0384 7.3629 10.9415 8.51464C9.84462 9.63896 9.29618 11.2432 9.29618 13.3273V15.9598C9.29618 18.0439 9.84462 19.6618 10.9415 20.8136C12.0384 21.9379 13.6563 22.5 15.7953 22.5C17.2761 22.5 18.5375 22.1573 19.5796 21.4717C20.6216 20.7587 21.1426 19.8538 21.1426 18.7569H17.3468V12.9982H29.8218V28.7935H24.2276V25.9964C21.6499 28.1902 18.277 29.2871 14.1088 29.2871C9.41958 29.2871 5.8958 28.0668 3.53748 25.6262C1.17916 23.1582 0 19.4973 0 14.6435C0 9.84462 1.32998 6.21116 3.98995 3.74315C6.67734 1.24772 10.489 0 15.4251 0Z" fill="#545185"/>
<path d="M58.2454 28.7935V18.0576H48.2499V28.7935H39.1594V0.493603H48.2499V10.8181H58.2454V0.493603H67.3359V28.7935H58.2454Z" fill="#545185"/>
<path d="M91.1937 0C96.0748 0 99.8454 1.24772 102.505 3.74315C105.165 6.23858 106.495 9.87205 106.495 14.6435C106.495 19.415 105.165 23.0485 102.505 25.5439C99.8454 28.0394 96.0748 29.2871 91.1937 29.2871C86.3125 29.2871 82.5419 28.0531 79.8819 25.5851C77.2494 23.0896 75.9331 19.4424 75.9331 14.6435C75.9331 9.84462 77.2494 6.21116 79.8819 3.74315C82.5419 1.24772 86.3125 0 91.1937 0ZM91.1937 6.78703C89.2467 6.78703 87.7659 7.37661 86.7512 8.55577C85.7366 9.73493 85.2293 11.3254 85.2293 13.3273V15.9598C85.2293 17.9616 85.7366 19.5521 86.7512 20.7313C87.7659 21.9105 89.2467 22.5 91.1937 22.5C93.1407 22.5 94.6215 21.9105 95.6361 20.7313C96.6781 19.5521 97.1992 17.9616 97.1992 15.9598V13.3273C97.1992 11.3254 96.6781 9.73493 95.6361 8.55577C94.6215 7.37661 93.1407 6.78703 91.1937 6.78703Z" fill="#545185"/>
<path d="M58.8976 23.5244C60.6526 23.5244 62.2157 23.9357 63.5868 24.7584C64.958 25.5536 66.0274 26.6642 66.7953 28.0902C67.5631 29.4887 67.947 31.0655 67.947 32.8206V33.3553C67.947 35.1103 67.5631 36.7008 66.7953 38.1268C66.0274 39.5527 64.958 40.6771 63.5868 41.4997C62.2157 42.295 60.6526 42.6926 58.8976 42.6926H48.1091V51.8242H39.0186V23.5244H58.8976ZM48.1091 36.0701H55.8537C56.8135 36.0701 57.5265 35.8233 57.9927 35.3297C58.4863 34.8361 58.7331 34.1643 58.7331 33.3142V32.9851C58.7331 32.1076 58.4863 31.4357 57.9927 30.9696C57.5265 30.4759 56.8135 30.2291 55.8537 30.2291H48.1091V36.0701Z" fill="#262626"/>
<path d="M104.832 32.2036C104.832 33.9312 104.366 35.4942 103.434 36.8928C102.501 38.2913 101.144 39.3197 99.3614 39.9778L105.671 47.755V52.1579H98.8911L89.0749 41.4997H87.0625V51.8242H77.972V23.5244H95.2892C97.3184 23.5244 99.046 23.922 100.472 24.7173C101.925 25.4851 103.009 26.5408 103.722 27.8845C104.462 29.2008 104.832 30.6405 104.832 32.2036ZM95.5771 32.5738C95.5771 31.8334 95.3303 31.2164 94.8367 30.7227C94.3431 30.2291 93.7398 29.9823 93.0268 29.9823H87.0625V35.2063H93.0268C93.7398 35.2063 94.3431 34.9595 94.8367 34.4659C95.3303 33.9449 95.5771 33.3142 95.5771 32.5738Z" fill="#262626"/>
<path d="M128.151 23.5244C138.05 23.5244 143 28.241 143 37.6743C143 47.1076 138.05 51.8242 128.151 51.8242H115.893V23.5244H128.151ZM124.984 45.0372H127.986C131.798 45.0372 133.704 42.9942 133.704 38.9083V36.4403C133.704 32.3544 131.798 30.3114 127.986 30.3114H124.984V45.0372Z" fill="#262626"/>
</svg>
